<svg id="Layer_1" data-name="Layer 1" xmlns="http://www.w3.org/2000/svg" viewBox="0 0 300 300"><defs><style>.cls-1{fill:#69320a;}.cls-2,.cls-3{fill:#fdf2e9;}.cls-3{font-size:61.04px;stroke:#8f7563;stroke-miterlimit:10;font-family:MyriadPro-Regular, Myriad Pro;}.cls-4{letter-spacing:-0.01em;}</style></defs><rect class="cls-1" x="27.46" y="19.96" width="247.07" height="266.07" rx="39.04"/><path class="cls-1" d="M235.5,20.93A38.12,38.12,0,0,1,273.57,59V247a38.12,38.12,0,0,1-38.07,38.07H66.5A38.12,38.12,0,0,1,28.43,247V59A38.12,38.12,0,0,1,66.5,20.93h169m0-1.93H66.5a40,40,0,0,0-40,40V247a40,40,0,0,0,40,40h169a40,40,0,0,0,40-40V59a40,40,0,0,0-40-40Z"/><circle class="cls-2" cx="251.5" cy="38.5" r="35.5"/><path class="cls-1" d="M251.5,4A34.5,34.5,0,1,1,217,38.5,34.54,34.54,0,0,1,251.5,4m0-2A36.5,36.5,0,1,0,288,38.5,36.5,36.5,0,0,0,251.5,2Z"/><circle class="cls-2" cx="45.5" cy="38.5" r="35.5"/><path class="cls-1" d="M45.5,4A34.5,34.5,0,1,1,11,38.5,34.54,34.54,0,0,1,45.5,4m0-2A36.5,36.5,0,1,0,82,38.5,36.5,36.5,0,0,0,45.5,2Z"/><text class="cls-3" transform="translate(45.31 225.09) scale(1.03 1)">Li<tspan class="cls-4" x="43.09" y="0">t</tspan><tspan x="62.93" y="0">eman</tspan></text></svg>